<?xml version="1.0" encoding="utf-8"?>
<!-- Generator: Adobe Illustrator 22.0.1, SVG Export Plug-In . SVG Version: 6.00 Build 0)  -->
<svg version="1.1" id="Layer_1" xmlns="http://www.w3.org/2000/svg" xmlns:xlink="http://www.w3.org/1999/xlink" x="0px" y="0px"
	 viewBox="0 0 300 300" style="enable-background:new 0 0 300 300;" xml:space="preserve">
<style type="text/css">
	.st0{display:none;opacity:0.32;}
	.st1{display:inline;}
	.st2{fill:url(#SVGID_1_);}
</style>
<g class="st0">
	<path class="st1" d="M198.9,23.1V12.7h101.9v10.5c-8.5,0.3-16,2.2-22.4,5.7c-6.4,3.6-11.5,8.7-15.1,15.5c-3.7,6.8-5.5,15-5.5,24.5
		l3.6,218.5h-11.8L54.9,59.9l2.9,152.9c0.3,9.5,1,17.6,2.3,24.1c1.3,6.5,3.6,12.2,6.9,17c3.3,4.8,8,8.6,14.2,11.4
		c6.2,2.8,14.1,4.6,23.9,5.5v10.5H3.8v-10.5c13.2-1,23-4.6,29.4-10.7c6.4-6.1,10.4-13.7,11.9-22.8c1.5-9.1,2-20.5,1.5-34.2L44,47.3
		c-7.2-7.9-14.3-13.9-21.1-18c-6.9-4.1-14-6.2-21.3-6.2h-2.3V12.7h78.7l171.6,200.2L246.9,79c0-10.3-1-19-3.1-26.2
		c-2.1-7.2-5.6-13-10.6-17.4c-3.6-3.6-8.7-6.5-15.3-8.9C211.1,24.1,204.8,23,198.9,23.1z M235.6,241.2L64,41.1
		c-3.6-4.6-7.8-8.7-12.7-12.4c-4.9-3.7-11.8-5.5-20.7-5.5h-8.6c7.1,2.5,12.6,5.6,16.6,9.2c3.9,3.6,9.5,9.7,16.6,18.2l195.6,227.8
		c-0.1-3.7-0.3-7.3-0.5-10.8c-0.2-3.5-0.6-6.1-1.2-7.8c-0.6-1.7-1.8-3.8-3.6-6.4C243.7,250.9,240.4,246.8,235.6,241.2z M27.2,270.9
		h40.2c-5.6-4.3-9.6-8.3-11.9-12c-2.4-3.7-4.4-8.8-6-15.4c-1.7,6-4.2,11.1-7.6,15.5S33.6,267.4,27.2,270.9z M265.5,23.1h-41.7
		c6.3,2.2,11.5,5.1,15.5,9s7.4,9,10.2,15.6C252.4,36.4,257.8,28.2,265.5,23.1z"/>
</g>
<g>
	<linearGradient id="SVGID_1_" gradientUnits="userSpaceOnUse" x1="8.5795" y1="150" x2="291.4205" y2="150">
		<stop  offset="0" style="stop-color:#E83531"/>
		<stop  offset="1" style="stop-color:#FFF100"/>
	</linearGradient>
	<path class="st2" d="M218.3,280.5c-1,0-1.9-0.4-2.6-1.2L15.2,32.1v241.8h67v-83.6c0-1.8,1.5-3.3,3.3-3.3c1.8,0,3.3,1.5,3.3,3.3
		v86.9c0,1.8-1.5,3.3-3.3,3.3H11.9c-1.8,0-3.3-1.5-3.3-3.3V22.8c0-1.4,0.9-2.7,2.2-3.1c1.3-0.5,2.8-0.1,3.7,1L215,267.9V22.8
		c0-1.8,1.5-3.3,3.3-3.3h69.8c1.8,0,3.3,1.5,3.3,3.3v94.2c0,1.8-1.5,3.3-3.3,3.3s-3.3-1.5-3.3-3.3V26.1h-63.1v251
		c0,1.4-0.9,2.7-2.2,3.1C219.1,280.4,218.7,280.5,218.3,280.5z"/>
</g>
</svg>
